<svg xmlns="http://www.w3.org/2000/svg" version="1.1" xmlns:xlink="http://www.w3.org/1999/xlink" xmlns:svgjs="http://svgjs.com/svgjs" width="1440" height="560" preserveAspectRatio="none" viewBox="0 0 1440 560">
    <g mask="url(&quot;#SvgjsMask1000&quot;)" fill="none">
        <rect width="1440" height="560" x="0" y="0" fill="#1e3266"></rect>
        <path d="M1464 560L0 560 L0 363.96Q45.94 289.89, 120 335.83Q128.32 272.15, 192 280.48Q260.54 229.02, 312 297.56Q386.34 251.9, 432 326.25Q480.44 302.69, 504 351.12Q550.41 325.53, 576 371.95Q592.54 316.49, 648 333.03Q665.33 278.36, 720 295.69Q772.16 227.85, 840 280.01Q891.62 259.63, 912 311.25Q961.9 241.15, 1032 291.06Q1123.45 262.51, 1152 353.96Q1165.47 295.43, 1224 308.9Q1299.4 264.3, 1344 339.71Q1412.47 288.19, 1464 356.66z" fill="#182f5d"></path>
        <path d="M1488 560L0 560 L0 371.47Q71.57 371.04, 72 442.61Q118.23 368.84, 192 415.06Q219.13 370.19, 264 397.32Q306.62 319.94, 384 362.55Q475.69 334.24, 504 425.92Q549.01 350.93, 624 395.94Q682.85 382.79, 696 441.65Q725.91 399.56, 768 429.47Q811.23 352.7, 888 395.93Q915.66 351.59, 960 379.25Q1021.47 368.72, 1032 430.18Q1076.63 402.81, 1104 447.44Q1148.93 372.38, 1224 417.31Q1245.24 366.55, 1296 387.79Q1323.07 342.86, 1368 369.92Q1444.01 325.93, 1488 401.93z" fill="#25467d"></path>
        <path d="M1464 560L0 560 L0 441.45Q57.92 427.37, 72 485.29Q102.22 395.51, 192 425.73Q264.6 378.33, 312 450.93Q370.18 437.11, 384 495.28Q390.36 429.64, 456 436Q486.13 394.13, 528 424.26Q606.6 382.86, 648 461.45Q696.14 389.6, 768 437.74Q848.13 397.87, 888 478Q936.13 454.13, 960 502.25Q1014.25 436.5, 1080 490.75Q1110.1 448.85, 1152 478.94Q1223.78 430.72, 1272 502.5Q1338.6 449.1, 1392 515.69Q1411.75 463.45, 1464 483.2z" fill="#356cb1"></path>
        <path d="M1488 560L0 560 L0 577.95Q27.5 485.45, 120 512.95Q163.23 484.18, 192 527.42Q253.89 517.31, 264 579.2Q283.34 478.54, 384 497.87Q454.8 448.67, 504 519.47Q569.29 512.76, 576 578.05Q606.57 536.62, 648 567.19Q699.38 498.58, 768 549.96Q791.75 501.71, 840 525.46Q928.65 494.12, 960 582.77Q989.52 540.29, 1032 569.81Q1070.75 488.56, 1152 527.31Q1240.38 495.68, 1272 584.06Q1291.34 531.39, 1344 550.73Q1387.72 522.45, 1416 566.18Q1431.67 509.85, 1488 525.52z" fill="white"></path>
    </g>
    <defs>
        <mask id="SvgjsMask1000">
            <rect width="1440" height="560" fill="#ffffff"></rect>
        </mask>
    </defs>
</svg>